{"title":"The Biggest Loser UK Season 3","uid":5447204,"size":16362595491,"categoryP":"video","categoryS":"tv_shows","magnet":"?xt=urn:btih:8a8c3d242b81891270133e3ddb5360583aea7380&amp;dn=The+Biggest+Loser+UK+Season+3&amp;tr=udp%3A%2F%2Ftracker.openbittorrent.com%3A80&amp;tr=udp%3A%2F%2Fopen.demonii.com%3A1337&amp;tr=udp%3A%2F%2Ftracker.coppersurfer.tk%3A6969&amp;tr=udp%3A%2F%2Fexodus.desync.com%3A6969","seeders":2,"leechers":2,"uploader":"pixiesmiles","files":-1,"time":1269063663,"description":"And.... even MORE Biggest Loser! This time, its UK style.  Interestingly, the prize for winning The Biggest Loser in the UK is MUCH smaller. The contestants seem willing enough, nonetheless. :o)\n\nAgain, I am not the original creator of this torrent. I just 'dinked' with it a little in order to bring it to the pirate bay. Quality looks fine and dandy, so I hope all of you fans enjoy! \n\n-=sample media info=-\n\nFormat                           : AVI\nFormat/Info                      : Audio Video Interleave\nFile size                        : 387 MiB\nDuration                         : 46mn 8s\nOverall bit rate                 : 1 172 Kbps\n\nVideo\nID                               : 0\nFormat                           : MPEG-4 Visual\nFormat profile                   : Simple@L3\nFormat settings, BVOP            : No\nFormat settings, QPel            : No\nFormat settings, GMC             : No warppoints\nFormat settings, Matrix          : Default (H.263)\nCodec ID                         : XVID\nCodec ID/Hint                    : XviD\nDuration                         : 46mn 8s\nBit rate                         : 999 Kbps\nWidth                            : 640 pixels\nHeight                           : 480 pixels\nDisplay aspect ratio             : 4:3\nFrame rate                       : 25.000 fps\nResolution                       : 8 bits\nColorimetry                      : 4:2:0\nScan type                        : Progressive\nBits/(Pixel*Frame)               : 0.130\nStream size                      : 330 MiB (85%)\nWriting library                  : XviD 1.1.2 (UTC 2006-11-01)\n\nAudio\nID                               : 1\nFormat                           : MPEG Audio\nFormat version                   : Version 1\nFormat profile                   : Layer 3\nMode                             : Joint stereo\nFormat_Settings_ModeExtension    : MS Stereo\nCodec ID                         : 55\nCodec ID/Hint                    : MP3\nDuration                         : 46mn 8s\nBit rate mode                    : Constant\nBit rate                         : 160 Kbps\nChannel(s)                       : 2 channels\nSampling rate                    : 48.0 KHz\nVideo delay                      : 24ms\nStream size                      : 52.8 MiB (14%)\nAlignment                        : Split accross interleaves\nInterleave, duration             : 24 ms (0.60 video frame)\n\n","torrent":{"xt":"urn:btih:8a8c3d242b81891270133e3ddb5360583aea7380","amp;dn":"The+Biggest+Loser+UK+Season+3","amp;tr":["udp%3A%2F%2Ftracker.openbittorrent.com%3A80","udp%3A%2F%2Fopen.demonii.com%3A1337","udp%3A%2F%2Ftracker.coppersurfer.tk%3A6969","udp%3A%2F%2Fexodus.desync.com%3A6969"],"infoHash":"8a8c3d242b81891270133e3ddb5360583aea7380","infoHashBuffer":{"type":"Buffer","data":[138,140,61,36,43,129,137,18,112,19,62,61,219,83,96,88,58,234,115,128]},"announce":[],"urlList":[]}}